<svg xmlns="http://www.w3.org/2000/svg" xml:space="preserve" width="2000" height="357" data-id="lg_Jm7fgsMU9nHYJlvRmR" data-version="1" viewBox="0 0 2000 357"><g data-padding="20"><g transform="translate(10 6.364)scale(.96435)"><rect width="413.799" height="166.11" x="419.451" y="-305.305" fill="none" rx="0" ry="0" transform="translate(473.6 400.83)"/><path d="M947.07 177.72q.59 2.36.59 5.88 0 3.38-.59 5.88.59 2.36.59 5.88 0 3.38-.59 5.88h-4.41q.59 2.36.59 5.88 0 3.38-.59 5.88h-7.35q.59 2.36.59 5.88 0 3.38-.59 5.88h-23.52q-.59-2.5-.59-5.88 0-3.52.59-5.88h-7.35q-.59-2.5-.59-5.88 0-3.52.59-5.88h-4.41q-.59-2.5-.59-5.88 0-3.52.59-5.88-.59-2.5-.59-5.88 0-3.52.59-5.88-.59-2.5-.59-5.88 0-3.52.59-5.88h4.41q-.59-2.5-.59-5.88 0-3.52.59-5.88h7.35q-.59-2.5-.59-5.88 0-3.52.59-5.88h23.52q.59 2.36.59 5.88 0 3.38-.59 5.88h7.35q.59 2.36.59 5.88 0 3.38-.59 5.88h4.41q.59 2.36.59 5.88 0 3.38-.59 5.88m-11.76 23.52q-.59-2.5-.59-5.88 0-3.52.59-5.88-.59-2.5-.59-5.88 0-3.52.59-5.88-.59-2.5-.59-5.88 0-3.52.59-5.88h-4.41q-.59-2.5-.59-5.88 0-3.52.59-5.88h-14.7q.59 2.36.59 5.88 0 3.38-.59 5.88h-4.41q.59 2.36.59 5.88 0 3.38-.59 5.88.59 2.36.59 5.88 0 3.38-.59 5.88.59 2.36.59 5.88 0 3.38-.59 5.88h4.41q.59 2.36.59 5.88 0 3.38-.59 5.88h14.7q-.59-2.5-.59-5.88 0-3.52.59-5.88Zm34.4-29.4q0 3.38-.59 5.88H975q.59 2.36.59 5.88 0 3.38-.59 5.88h-4.41q.59 2.36.59 5.88 0 3.38-.59 5.88.59 2.36.59 5.88 0 3.38-.59 5.88.59 2.36.59 5.88 0 3.38-.59 5.88h-11.76q-.59-2.5-.59-5.88 0-3.52.59-5.88-.59-2.5-.59-5.88 0-3.52.59-5.88-.59-2.5-.59-5.88 0-3.52.59-5.88-.59-2.5-.59-5.88 0-3.52.59-5.88-.59-2.5-.59-5.88 0-3.52.59-5.88h10.29q.59 2.36.59 5.88m36.16 17.64q.59 2.36.59 5.88 0 3.38-.59 5.88.59 2.36.59 5.88 0 3.38-.59 5.88.59 2.36.59 5.88 0 3.38-.59 5.88h-11.76q-.59-2.5-.59-5.88 0-3.52.59-5.88-.59-2.5-.59-5.88 0-3.52.59-5.88-.59-2.5-.59-5.88 0-3.52.59-5.88-.59-2.5-.59-5.88 0-3.52.59-5.88H975q-.59-2.5-.59-5.88 0-3.52.59-5.88h23.52q.59 2.36.59 5.88 0 3.38-.59 5.88h7.35q.59 2.36.59 5.88 0 3.38-.59 5.88m23.52 11.76q.59 2.36.59 5.88 0 3.38-.59 5.88h-5.88q.59 2.36.59 5.88 0 3.38-.59 5.88h-5.88q-.59-2.5-.59-5.88 0-3.52.59-5.88-.59-2.5-.59-5.88 0-3.52.59-5.88-.59-2.5-.59-5.88 0-3.52.59-5.88-.59-2.5-.59-5.88 0-3.52.59-5.88-.59-2.5-.59-5.88 0-3.52.59-5.88-.59-2.5-.59-5.88 0-3.52.59-5.88-.59-2.5-.59-5.88 0-3.52.59-5.88h11.76q.59 2.36.59 5.88 0 3.38-.59 5.88.59 2.36.59 5.88 0 3.38-.59 5.88.59 2.36.59 5.88 0 3.38-.59 5.88h5.88q.59 2.36.59 5.88 0 3.38-.59 5.88h-5.88q.59 2.36.59 5.88 0 3.38-.59 5.88m35.87-5.88q0 3.38-.59 5.88h-5.88q.59 2.36.59 5.88 0 3.38-.59 5.88h-11.76q-.59-2.5-.59-5.88 0-3.52.59-5.88h5.88q-.59-2.5-.59-5.88 0-3.52.59-5.88h-5.88q-.59-2.5-.59-5.88 0-3.52.59-5.88h-11.76q-.59-2.5-.59-5.88 0-3.52.59-5.88h17.64q.59 2.36.59 5.88 0 3.38-.59 5.88h5.88q.59 2.36.59 5.88 0 3.38-.59 5.88h5.88q.59 2.36.59 5.88m-36.46 23.52q0-3.52.59-5.88h17.64q.59 2.36.59 5.88 0 3.38-.59 5.88h-17.64q-.59-2.5-.59-5.88m95.26-23.52q0 3.38-.59 5.88h-4.41q.59 2.36.59 5.88 0 3.38-.59 5.88h-7.35q.59 2.36.59 5.88 0 3.38-.59 5.88h-23.52q-.59-2.5-.59-5.88 0-3.52.59-5.88h-7.35q-.59-2.5-.59-5.88 0-3.52.59-5.88h-4.41q-.59-2.5-.59-5.88 0-3.52.59-5.88h4.41q-.59-2.5-.59-5.88 0-3.52.59-5.88h7.35q-.59-2.5-.59-5.88 0-3.52.59-5.88h23.52q.59 2.36.59 5.88 0 3.38-.59 5.88h7.35q.59 2.36.59 5.88 0 3.38-.59 5.88h4.41q.59 2.36.59 5.88m-16.76 5.88h4.41q-.59-2.5-.59-5.88 0-3.52.59-5.88h-4.41q-.59-2.5-.59-5.88 0-3.52.59-5.88h-14.7q.59 2.36.59 5.88 0 3.38-.59 5.88h-4.41q.59 2.36.59 5.88 0 3.38-.59 5.88h4.41q.59 2.36.59 5.88 0 3.38-.59 5.88h14.7q-.59-2.5-.59-5.88 0-3.52.59-5.88m74.97 11.76q.59 2.36.59 5.88 0 3.38-.59 5.88h-11.76q-.59-2.5-.59-5.88 0-3.52.59-5.88h-5.88q-.59-2.5-.59-5.88 0-3.52.59-5.88h-17.64q.59 2.36.59 5.88 0 3.38-.59 5.88h17.64q.59 2.36.59 5.88 0 3.38-.59 5.88h-23.52q-.59-2.5-.59-5.88 0-3.52.59-5.88h-5.88q-.59-2.5-.59-5.88 0-3.52.59-5.88h5.88q-.59-2.5-.59-5.88 0-3.52.59-5.88h23.52q-.59-2.5-.59-5.88 0-3.52.59-5.88h-20.58q-.59-2.5-.59-5.88 0-3.52.59-5.88h26.46q.59 2.36.59 5.88 0 3.38-.59 5.88h5.88q.59 2.36.59 5.88 0 3.38-.59 5.88.59 2.36.59 5.88 0 3.38-.59 5.88.59 2.36.59 5.88 0 3.38-.59 5.88Zm58.8-35.28q.59 2.36.59 5.88 0 3.38-.59 5.88h-11.76q-.59-2.5-.59-5.88 0-3.52.59-5.88h-10.29q.59 2.36.59 5.88 0 3.38-.59 5.88h-4.41q.59 2.36.59 5.88 0 3.38-.59 5.88.59 2.36.59 5.88 0 3.38-.59 5.88h8.82q.59 2.36.59 5.88 0 3.38-.59 5.88h-29.4q-.59-2.5-.59-5.88 0-3.52.59-5.88h8.82q-.59-2.5-.59-5.88 0-3.52.59-5.88-.59-2.5-.59-5.88 0-3.52.59-5.88-.59-2.5-.59-5.88 0-3.52.59-5.88h-8.82q-.59-2.5-.59-5.88 0-3.52.59-5.88h14.7q.59 2.36.59 5.88 0 3.38-.59 5.88h5.88q-.59-2.5-.59-5.88 0-3.52.59-5.88h22.05q.59 2.36.59 5.88 0 3.38-.59 5.88Zm58.8-23.52q.59 2.36.59 5.88 0 3.38-.59 5.88.59 2.36.59 5.88 0 3.38-.59 5.88.59 2.36.59 5.88 0 3.38-.59 5.88.59 2.36.59 5.88 0 3.38-.59 5.88.59 2.36.59 5.88 0 3.38-.59 5.88.59 2.36.59 5.88 0 3.38-.59 5.88h-11.76q-.59-2.5-.59-5.88 0-3.52.59-5.88h-4.41q-.59-2.5-.59-5.88 0-3.52.59-5.88h4.41q-.59-2.5-.59-5.88 0-3.52.59-5.88h-4.41q-.59-2.5-.59-5.88 0-3.52.59-5.88h4.41q-.59-2.5-.59-5.88 0-3.52.59-5.88-.59-2.5-.59-5.88 0-3.52.59-5.88-.59-2.5-.59-5.88 0-3.52.59-5.88h11.76q.59 2.36.59 5.88 0 3.38-.59 5.88m-18.52 17.64q0 3.38-.59 5.88h-14.7q.59 2.36.59 5.88 0 3.38-.59 5.88h-4.41q.59 2.36.59 5.88 0 3.38-.59 5.88h4.41q.59 2.36.59 5.88 0 3.38-.59 5.88h14.7q.59 2.36.59 5.88 0 3.38-.59 5.88h-16.17q-.59-2.5-.59-5.88 0-3.52.59-5.88h-7.35q-.59-2.5-.59-5.88 0-3.52.59-5.88h-4.41q-.59-2.5-.59-5.88 0-3.52.59-5.88h4.41q-.59-2.5-.59-5.88 0-3.52.59-5.88h7.35q-.59-2.5-.59-5.88 0-3.52.59-5.88h16.17q.59 2.36.59 5.88"/><path d="M1103.793 69.657V-.223H746.348v357.445h357.445v-69.879h-5.82v64.06H752.168V5.597h345.805v64.059Z"/></g><path fill="transparent" stroke="transparent" d="M719.5 0h561v357h-561z"/></g></svg>